# xmcd
# 
# Track frame offsets:
#     150
#     24570
#     53641
#     78381
#     90676
#     107393
#     126966
#     144829
#     169176
#     186235
#     200954
#     223600
#     246192
#     266438
# 
# Disc length: 3788
# 
# Revision: 6
# Processed by: cddbd v1.5.2PL0 Copyright (c) Steve Scherf et al.
# Submitted via: fre:ac v1.0.27
# 
DISCID=c30eca0e
DTITLE=Robin Trower - Bridge Of Sighs
DYEAR=1974
DGENRE=Rock
TTITLE0=I Can't Wait Much Longer
TTITLE1=Daydream
TTITLE2=Hanna
TTITLE3=Man Of The World
TTITLE4=I Can't Stand It
TTITLE5=Rock Me Baby
TTITLE6=Twice Removed From Yesterday
TTITLE7=Sinner's Song
TTITLE8=Ballerina
TTITLE9=Take A Fast Train
TTITLE10=Day Of The Eagle
TTITLE11=Bridge Of Sighs
TTITLE12=In This Place
TTITLE13=The Fool And Me
EXTD=
EXTT0=
EXTT1=
EXTT2=
EXTT3=
EXTT4=
EXTT5=
EXTT6=
EXTT7=
EXTT8=
EXTT9=
EXTT10=
EXTT11=
EXTT12=
EXTT13=
PLAYORDER=
